<svg width="67" height="67" viewBox="0 0 67 67" fill="none" xmlns="http://www.w3.org/2000/svg">
<g clip-path="url(#clip0_3_367)">
<path d="M49.5484 0H16.5161C7.39452 0 0 7.39452 0 16.5161V49.5484C0 58.67 7.39452 66.0645 16.5161 66.0645H49.5484C58.67 66.0645 66.0645 58.67 66.0645 49.5484V16.5161C66.0645 7.39452 58.67 0 49.5484 0Z" fill="url(#paint0_linear_3_367)"/>
<path opacity="0.3" fill-rule="evenodd" clip-rule="evenodd" d="M36.762 17.9632C34.6711 16.0336 31.3919 16.0336 29.301 17.9632C28.6698 18.5456 27.7856 18.8275 26.8992 18.7111C24.0682 18.3397 21.3698 20.1805 20.8432 22.9879C20.6926 23.7907 20.1665 24.5026 19.3886 24.9056C16.8378 26.2268 15.7765 29.2908 17.0636 31.863C17.4339 32.6031 17.4339 33.4612 17.0636 34.2012C15.7765 36.7735 16.8378 39.8375 19.3886 41.1587C20.1665 41.5615 20.6926 42.2733 20.8432 43.0764C21.3698 45.8837 24.0682 47.7244 26.8992 47.3532C27.7856 47.2368 28.6698 47.5184 29.301 48.101C31.3919 50.0305 34.6711 50.0305 36.762 48.101C37.3932 47.5184 38.2774 47.2368 39.1638 47.3532C41.9948 47.7244 44.6931 45.8837 45.22 43.0764C45.3703 42.2733 45.8963 41.5615 46.6742 41.1587C49.2252 39.8375 50.2863 36.7735 48.9993 34.2012C48.6293 33.4612 48.6293 32.6031 48.9993 31.863C50.2863 29.2908 49.2252 26.2268 46.6742 24.9056C45.8963 24.5026 45.3703 23.7907 45.22 22.9879C44.6931 20.1805 41.9948 18.3397 39.1638 18.7111C38.2774 18.8275 37.3932 18.5456 36.762 17.9632Z" fill="white"/>
<path d="M39.7702 29.6977C40.2459 29.1818 40.2133 28.3781 39.6975 27.9024C39.1817 27.4267 38.378 27.4593 37.9024 27.9751L31.0988 35.3537L28.1639 32.1709C27.6883 31.655 26.8846 31.6225 26.3688 32.0981C25.853 32.5738 25.8204 33.3775 26.296 33.8934L30.1648 38.0891C30.4053 38.3499 30.744 38.4983 31.0988 38.4983C31.4535 38.4983 31.7922 38.3499 32.0327 38.0891L39.7702 29.6977Z" fill="white"/>
</g>
<defs>
<linearGradient id="paint0_linear_3_367" x1="0" y1="33.0323" x2="66.0645" y2="33.0323" gradientUnits="userSpaceOnUse">
<stop stop-color="#41B471"/>
<stop offset="1" stop-color="#29AE3F"/>
</linearGradient>
<clipPath id="clip0_3_367">
<rect width="66.0645" height="66.0645" fill="white"/>
</clipPath>
</defs>
</svg>
